<svg width="28" height="28" viewBox="0 0 28 28" fill="none" xmlns="http://www.w3.org/2000/svg">
<path d="M14 0.666626C17.6227 0.666626 18.0747 0.679959 19.496 0.746626C20.916 0.813293 21.8827 1.03596 22.7333 1.36663C23.6133 1.70529 24.3547 2.16396 25.096 2.90396C25.774 3.57049 26.2986 4.37674 26.6333 5.26663C26.9627 6.11596 27.1867 7.08396 27.2533 8.50396C27.316 9.92529 27.3333 10.3773 27.3333 14C27.3333 17.6226 27.32 18.0746 27.2533 19.496C27.1867 20.916 26.9627 21.8826 26.6333 22.7333C26.2996 23.6237 25.7748 24.4301 25.096 25.096C24.4293 25.7737 23.6231 26.2983 22.7333 26.6333C21.884 26.9626 20.916 27.1866 19.496 27.2533C18.0747 27.316 17.6227 27.3333 14 27.3333C10.3773 27.3333 9.92532 27.32 8.50399 27.2533C7.08399 27.1866 6.11732 26.9626 5.26666 26.6333C4.37642 26.2993 3.57003 25.7746 2.90399 25.096C2.22587 24.4295 1.70123 23.6233 1.36666 22.7333C1.03599 21.884 0.813323 20.916 0.746656 19.496C0.68399 18.0746 0.666656 17.6226 0.666656 14C0.666656 10.3773 0.67999 9.92529 0.746656 8.50396C0.813323 7.08263 1.03599 6.11729 1.36666 5.26663C1.7003 4.3762 2.22506 3.56972 2.90399 2.90396C3.57022 2.2256 4.37656 1.70093 5.26666 1.36663C6.11732 1.03596 7.08266 0.813293 8.50399 0.746626C9.92532 0.683959 10.3773 0.666626 14 0.666626ZM14 7.33329C12.2319 7.33329 10.5362 8.03567 9.28594 9.28591C8.0357 10.5362 7.33332 12.2318 7.33332 14C7.33332 15.7681 8.0357 17.4638 9.28594 18.714C10.5362 19.9642 12.2319 20.6666 14 20.6666C15.7681 20.6666 17.4638 19.9642 18.714 18.714C19.9643 17.4638 20.6667 15.7681 20.6667 14C20.6667 12.2318 19.9643 10.5362 18.714 9.28591C17.4638 8.03567 15.7681 7.33329 14 7.33329ZM22.6667 6.99996C22.6667 6.55793 22.4911 6.13401 22.1785 5.82145C21.8659 5.50889 21.442 5.33329 21 5.33329C20.558 5.33329 20.134 5.50889 19.8215 5.82145C19.5089 6.13401 19.3333 6.55793 19.3333 6.99996C19.3333 7.44199 19.5089 7.86591 19.8215 8.17847C20.134 8.49103 20.558 8.66663 21 8.66663C21.442 8.66663 21.8659 8.49103 22.1785 8.17847C22.4911 7.86591 22.6667 7.44199 22.6667 6.99996ZM14 9.99996C15.0609 9.99996 16.0783 10.4214 16.8284 11.1715C17.5786 11.9217 18 12.9391 18 14C18 15.0608 17.5786 16.0782 16.8284 16.8284C16.0783 17.5785 15.0609 18 14 18C12.9391 18 11.9217 17.5785 11.1716 16.8284C10.4214 16.0782 9.99999 15.0608 9.99999 14C9.99999 12.9391 10.4214 11.9217 11.1716 11.1715C11.9217 10.4214 12.9391 9.99996 14 9.99996Z" fill="#362F74"/>
</svg>
