<svg width="27" height="18" viewBox="0 0 27 18" fill="none" xmlns="http://www.w3.org/2000/svg">
<path d="M13.5 0C8.34136 0 3.66324 3.15648 0.211261 8.28346C-0.0704205 8.7035 -0.0704205 9.29032 0.211261 9.71036C3.66324 14.8435 8.34136 18 13.5 18C18.6586 18 23.3368 14.8435 26.7887 9.71654C27.0704 9.2965 27.0704 8.70968 26.7887 8.28964C23.3368 3.15649 18.6586 0 13.5 0ZM13.8701 15.3377C10.4457 15.5786 7.61785 12.4221 7.83326 8.58614C8.01 5.42347 10.3021 2.85999 13.1299 2.66232C16.5543 2.42141 19.3822 5.5779 19.1668 9.41386C18.9845 12.5704 16.6924 15.1338 13.8701 15.3377ZM13.6989 12.4097C11.8541 12.5395 10.3297 10.8408 10.4512 8.77762C10.5451 7.07275 11.7823 5.69526 13.3067 5.58408C15.1514 5.45436 16.6758 7.15305 16.5543 9.2162C16.4549 10.9272 15.2177 12.3047 13.6989 12.4097Z" fill="#3A3A3A"/>
</svg>
